<svg width="128" height="124.843" viewBox="0 0 33.867 33.031" xmlns="http://www.w3.org/2000/svg"><path d="M205.543 169.63c-9.35 0-16.932 7.58-16.932 16.933 0 7.482 4.851 13.828 11.58 16.068.848.155 1.156-.367 1.156-.816 0-.403-.014-1.467-.023-2.88-4.71 1.023-5.704-2.27-5.704-2.27-.77-1.957-1.88-2.478-1.88-2.478-1.538-1.05.116-1.029.116-1.029 1.7.12 2.593 1.746 2.593 1.746 1.51 2.587 3.964 1.84 4.929 1.406.154-1.093.591-1.84 1.075-2.263-3.76-.427-7.714-1.88-7.714-8.37 0-1.848.66-3.36 1.744-4.543-.175-.428-.756-2.151.166-4.482 0 0 1.42-.455 4.656 1.736a16.22 16.22 0 0 1 4.24-.57c1.438.006 2.886.194 4.238.57 3.233-2.191 4.652-1.736 4.652-1.736.925 2.331.343 4.054.17 4.482 1.085 1.183 1.74 2.695 1.74 4.544 0 6.505-3.96 7.937-7.731 8.356.607.522 1.149 1.556 1.149 3.135 0 2.264-.02 4.09-.02 4.646 0 .453.305.98 1.163.815 6.724-2.245 11.572-8.587 11.572-16.067 0-9.352-7.583-16.934-16.936-16.934" style="fill:#c8c8c8;fill-opacity:1;fill-rule:evenodd;stroke:none;stroke-width:.103955" transform="translate(-188.61 -169.63)"/></svg>