<svg viewBox="0 0 304.09 77" version="1.1" id="svg113" xmlns="http://www.w3.org/2000/svg"><defs id="defs81"><style id="style79">.cls-1{fill:#968867}.cls-2{fill:none}</style></defs><g id="Layer_2" data-name="Layer 2"><g id="Layer_1-2" data-name="Layer 1"><path class="cls-1" id="rect83" style="fill:#c8c8c8;fill-opacity:1" d="M246.62 34.59h11.16v8.37h-11.16z"/><path class="cls-1" id="polygon85" style="fill:#c8c8c8;fill-opacity:1" d="m304.09 38.78-44.08-18.6 7.9 18.6-7.9 18.6 44.08-18.6z"/><path class="cls-1" id="rect87" style="fill:#c8c8c8;fill-opacity:1" d="M0 34.59h11.16v8.37H0z"/><path class="cls-1" id="rect89" style="fill:#c8c8c8;fill-opacity:1" d="M22.32 34.59h11.16v8.37H22.32z"/><path class="cls-1" d="M157.38 0H70.54a2.7 2.7 0 0 0-1.76.67L62.55 6.1A2.74 2.74 0 0 1 58 3.89v-1A2.82 2.82 0 0 0 55.28 0h-9a2.82 2.82 0 0 0-2.76 2.88v71.24A2.82 2.82 0 0 0 46.28 77h9A2.82 2.82 0 0 0 58 74.12v-1a2.74 2.74 0 0 1 4.52-2.21l6.23 5.43a2.68 2.68 0 0 0 1.76.67h86.84a2.83 2.83 0 0 0 2.76-2.88V2.88A2.83 2.83 0 0 0 157.38 0ZM63.61 43H52.45v-8.41h11.16Zm22.32 0H74.77v-8.41h11.16Zm22.32 0H97.09v-8.41h11.16Zm22.32 0h-11.16v-8.41h11.16Zm22.31 0h-11.16v-8.41h11.16Z" id="path91" style="fill:#c8c8c8;fill-opacity:1"/><path class="cls-1" d="M180.78 0h-6.6a2.88 2.88 0 0 0-2.88 2.88v71.19a2.93 2.93 0 0 0 2.93 2.93h6.55c32.7-.57 58.92-17.58 58.92-38.48C239.7 17.6 213.48.59 180.78 0Zm-1.11 43h-2.79v-9H188v9ZM202 43h-2.8v-9h11.16v9Zm30.68 0h-11.17v-9h11.16Z" id="path93" style="fill:#c8c8c8;fill-opacity:1"/><path class="cls-2" id="polygon95" d="M188.04 34.04h-11.16v8.92h11.16v-8.92z"/><path class="cls-2" id="polygon97" d="M210.35 34.04H199.2v8.92h11.15v-8.92z"/><path class="cls-2" id="polygon99" d="M221.51 42.96h11.16v-8.92h-11.16v8.92z"/><path class="cls-2" id="polygon101" d="M141.72 34.59v8.37h11.16v-8.37h-11.16z"/><path class="cls-2" id="polygon103" d="M119.41 34.59v8.37h11.15v-8.37h-11.15z"/><path class="cls-2" id="polygon105" d="M74.77 34.59v8.37h11.16v-8.37H74.77z"/><path class="cls-2" id="polygon107" d="M52.45 34.59v8.37h11.16v-8.37H52.45z"/><path class="cls-2" id="polygon109" d="M97.09 34.59v8.37h11.16v-8.37H97.09z"/></g></g></svg>